<mxfile host="app.diagrams.net" modified="2022-09-20T11:54:17.847Z" agent="5.0 (Windows NT 10.0; Win64; x64) AppleWebKit/537.36 (KHTML, like Gecko) Chrome/104.0.5112.102 Safari/537.36 OPR/90.0.4480.100" etag="-MyHNZe4QSoKC1s5gv3H" version="20.3.3" type="github">
  <diagram id="rxrhNhbH10315BM-Yj1W" name="PÃ¡gina-1">
    <mxGraphModel dx="1237" dy="571" grid="1" gridSize="10" guides="1" tooltips="1" connect="1" arrows="1" fold="1" page="1" pageScale="1" pageWidth="827" pageHeight="1169" math="0" shadow="0">
      <root>
        <mxCell id="0" />
        <mxCell id="1" parent="0" />
        <mxCell id="7nbQnFQx7RE96vOaQw8F-4" value="" style="rounded=1;whiteSpace=wrap;html=1;strokeWidth=1;fontFamily=Comic Sans MS;fontStyle=1;labelBackgroundColor=#B266FF;gradientColor=none;" vertex="1" parent="1">
          <mxGeometry x="360" y="90" width="120" height="60" as="geometry" />
        </mxCell>
        <mxCell id="7nbQnFQx7RE96vOaQw8F-5" value="INIT" style="text;html=1;resizable=0;autosize=1;align=center;verticalAlign=middle;points=[];fillColor=none;strokeColor=none;rounded=0;labelBackgroundColor=none;strokeWidth=1;fontFamily=Comic Sans MS;" vertex="1" parent="1">
          <mxGeometry x="395" y="105" width="50" height="30" as="geometry" />
        </mxCell>
        <mxCell id="7nbQnFQx7RE96vOaQw8F-6" value="" style="endArrow=classic;html=1;rounded=0;fontFamily=Comic Sans MS;exitX=0.5;exitY=1;exitDx=0;exitDy=0;" edge="1" source="7nbQnFQx7RE96vOaQw8F-4" parent="1">
          <mxGeometry width="50" height="50" relative="1" as="geometry">
            <mxPoint x="350" y="-30" as="sourcePoint" />
            <mxPoint x="420" y="190" as="targetPoint" />
          </mxGeometry>
        </mxCell>
        <mxCell id="7nbQnFQx7RE96vOaQw8F-8" style="edgeStyle=orthogonalEdgeStyle;rounded=0;orthogonalLoop=1;jettySize=auto;html=1;exitX=0.5;exitY=1;exitDx=0;exitDy=0;entryX=0.5;entryY=0;entryDx=0;entryDy=0;" edge="1" parent="1" source="7nbQnFQx7RE96vOaQw8F-7" target="7nbQnFQx7RE96vOaQw8F-4">
          <mxGeometry relative="1" as="geometry" />
        </mxCell>
        <mxCell id="7nbQnFQx7RE96vOaQw8F-7" value="variables:&lt;br&gt;caracter_intro" style="rounded=0;whiteSpace=wrap;html=1;" vertex="1" parent="1">
          <mxGeometry x="360" width="120" height="60" as="geometry" />
        </mxCell>
      </root>
    </mxGraphModel>
  </diagram>
</mxfile>
